<svg xmlns="http://www.w3.org/2000/svg" width="22" height="21" viewBox="0 0 22 21"><g><g><g><path fill="#fff" d="M14.274 14.395c-.413-.226-.842-.298-1.206-.2-.274.072-.496.239-.646.482-.331.382-.742.826-.84.895-.769.5-1.378.441-2.04-.197L5.82 11.788c-.663-.638-.723-1.225-.204-1.965.072-.097.534-.493.93-.81.251-.146.424-.36.5-.624.101-.35.027-.764-.211-1.166-.056-.092-1.39-2.27-2.62-2.897a1.636 1.636 0 0 0-1.878.272l-.822.794C-.883 7.703-.44 10.574 2.799 13.696l4.764 4.593c1.471 1.417 2.896 2.288 4.235 2.585.355.08.703.118 1.044.118 1.205 0 2.323-.49 3.336-1.467l.823-.793c.499-.48.613-1.208.282-1.809-.65-1.186-2.91-2.473-3.01-2.528z"/></g><g><path fill="none" stroke="#fff" stroke-linecap="round" stroke-miterlimit="20" stroke-width="2" d="M20.434 11.752c0-5.62-4.744-10.194-10.574-10.194"/></g><g><path fill="none" stroke="#fff" stroke-linecap="round" stroke-miterlimit="20" stroke-width="2" d="M15.878 11.752c0-3.198-2.7-5.801-6.018-5.801"/></g></g></g></svg>