<svg xmlns="http://www.w3.org/2000/svg" width="20" height="16" viewBox="0 0 20 16"><g><g><path fill="#fff" d="M.614 3.61C.204 3.054 0 2.537 0 2.06 0 1.468.154.977.463.583c.309-.394.75-.59 1.322-.59h16.429c.484 0 .902.178 1.256.533.353.356.53.785.53 1.284 0 .598-.182 1.17-.547 1.716a5.347 5.347 0 0 1-1.362 1.398l-5.223 3.694-.474.346a12.302 12.302 0 0 1-1.183.803c-.227.136-.441.237-.642.306-.2.069-.387.104-.558.104H9.99a1.74 1.74 0 0 1-.559-.104c-.2-.069-.414-.17-.641-.306a12.196 12.196 0 0 1-1.183-.803l-.475-.346a697.317 697.317 0 0 0-2.924-2.073A524.379 524.379 0 0 1 1.92 4.923c-.46-.318-.896-.755-1.305-1.313zM20 5.151v9.025c0 .5-.175.928-.525 1.285-.35.356-.77.534-1.26.534H1.784c-.49 0-.911-.178-1.26-.534A1.769 1.769 0 0 1 0 14.176V5.151c.327.37.703.701 1.127.99 2.694 1.862 4.542 3.17 5.547 3.92.424.318.768.567 1.032.743.264.18.616.361 1.055.546.439.187.848.28 1.228.28h.022c.38 0 .789-.093 1.228-.28.439-.185.79-.367 1.054-.546.265-.176.609-.425 1.033-.743 1.264-.932 3.117-2.239 5.558-3.92A6.265 6.265 0 0 0 20 5.151z"/></g></g></svg>