<?xml version="1.0" encoding="UTF-8"?>
<!DOCTYPE svg PUBLIC "-//W3C//DTD SVG 1.1//EN" "http://www.w3.org/Graphics/SVG/1.1/DTD/svg11.dtd">
<!-- Creator: CorelDRAW 2018 (64-Bit) -->
<svg xmlns="http://www.w3.org/2000/svg" xml:space="preserve" width="100mm" height="50mm" version="1.1" style="shape-rendering:geometricPrecision; text-rendering:geometricPrecision; image-rendering:optimizeQuality; fill-rule:evenodd; clip-rule:evenodd"
viewBox="0 0 10000 5000"
 xmlns:xlink="http://www.w3.org/1999/xlink">
 <defs>
  <style type="text/css">
   <![CDATA[
    .fil0 {fill:none}
    .fil1 {fill:#162ECE}
    .fil2 {fill:#162ECE;fill-rule:nonzero}
   ]]>
  </style>
 </defs>
 <g id="Слой_x0020_1">
  <metadata id="CorelCorpID_0Corel-Layer"/>
  <g id="_922147248">
   <rect class="fil0" x="-0" y="0" width="10000" height="5000"/>
   <g>
    <path class="fil1" d="M400 800.01l400 0 300 0c300,0 500,200 500,500l0 2000c0,300 -200,500 -500,500l-300 0 0 1000 -400 0 0 -4000zm5825 -600c124.27,0 225,100.73 225,225 0,124.27 -100.73,225 -225,225 -124.26,0 -225,-100.73 -225,-225 0,-124.27 100.74,-225 225,-225zm-3200 0c124.27,0 225,100.73 225,225 0,124.27 -100.73,225 -225,225 -124.26,0 -225,-100.73 -225,-225 0,-124.27 100.74,-225 225,-225zm5875 600c-300,0 -500,200 -500,500l0 2000c0,300 200,500 500,500l300 0 0 339.99c0,100.01 -100,200.01 -200,200.01l0 459.99 50 0.01c300,0 550,-250 550,-550l0 -3449.98 -399.99 0 -0.01 -0.02 -300 0zm300 2600l-200 0c-100,0 -200,-100 -200,-200l0 -1799.99c0,-100.01 100,-200.01 200,-200.01l200 0 0 2200zm-1690 -2600.01c300,0 500,200 500,500l0 2500.01 -400 0 0 -2400c0,-100.01 -100,-200.01 -200,-200.01l-210 0.01 0 2600 -400 0 0 -3000 400 0 310 -0.01zm-1860 3000.01c-300,0 -500,-200 -500,-500l0 -2900 400 -200.01 0 600 270 0.01 0 400 -270 0 0 1999.99c0,100.01 100,200.01 200,200.01l70 0 0 400.01 -170 -0.01zm-1350 -3000.01c300,0 500,200 500,500l0 2500.01 -400 0 0 -2400c0,-100.01 -100,-200.01 -200,-200.01l-200 0.01 0 2600 -400 0 0 -3000 400 0 300 -0.01zm-1850 0c-300,0 -500,200 -500,500l0 2500.01 400 0 0 -2400c0,-100.01 100,-200.01 200,-200.01l70 0.01 0 -400 -170 -0.01zm3570 0.01l400 0 0 3000 -400 0 0 -3000zm-3200 0l400 0 0 3000 -400 0 0 -3000zm-2020 400l0 2200 200 0c100,0 200,-100 200,-200l0 -1799.99c0,-100.01 -100,-200.01 -200,-200.01l-200 0z"/>
    <path class="fil2" d="M1206.57 4443.55l0 347.03c36.56,0 73.11,0 109.67,0l0 -347.03 105.96 0c0,-17.35 0,-34.59 0,-51.62 0,-17.14 0,-34.17 0,-51.2l-322.2 0c0,17.03 0,34.06 0,51.2 0,17.03 0,34.27 0,51.62l106.57 0zm543.39 125.96l0 221.07c19.21,0 38.41,0 57.52,0 19.21,0 38.21,0 57.11,0l0 -451.77 -40.27 0 -219.34 222.03 0 -220.11c-37.8,0 -75.59,0 -113.39,0l0 449.85 39.65 0 218.72 -221.07zm586.76 -228.78c-40.58,0 -76.52,0 -107.81,0 -31.19,0 -58.45,0 -81.79,0 -23.33,0 -43.47,0 -60.31,0 -16.83,0 -31.08,0 -42.86,0 -11.87,0 -21.78,0 -29.94,0 -8.15,0 -15.18,0 -21.16,0 -6,0 -11.57,0 -16.74,0l0 449.85c18.59,0 37.48,0 56.49,0 19,0 38,0 56.9,0l0 -343.81 133.83 0 0 343.81c37.8,0 75.59,0 113.39,0l0 -449.85zm529.13 225.57c-0.09,-31.06 -4.33,-59.12 -12.49,-83.97 -8.16,-24.85 -19.41,-46.7 -33.76,-65.33 -14.36,-18.64 -30.98,-34.17 -49.78,-46.7 -18.9,-12.43 -39.03,-21.74 -60.52,-27.96 -21.58,-6.21 -43.47,-9.31 -65.88,-9.31 -22.4,0 -44.3,3.1 -65.88,9.31 -21.49,6.22 -41.62,15.53 -60.42,27.96 -18.89,12.53 -35.52,28.06 -49.87,46.7 -14.35,18.63 -25.61,40.48 -33.77,65.33 -8.16,24.85 -12.29,52.91 -12.49,83.97 0.2,31.16 4.33,59.22 12.49,84.18 8.16,24.86 19.42,46.7 33.77,65.44 14.35,18.64 30.98,34.28 49.87,46.7 18.8,12.54 38.93,21.85 60.42,28.07 21.58,6.2 43.48,9.31 65.88,9.31 22.41,0 44.3,-3.11 65.88,-9.31 21.49,-6.22 41.62,-15.53 60.52,-28.07 18.8,-12.42 35.42,-28.06 49.78,-46.7 14.35,-18.74 25.6,-40.49 33.76,-65.44 8.16,-24.96 12.4,-53.02 12.49,-84.18zm-330.86 0c0.1,-20.25 3.3,-37.91 9.3,-53.13 6.08,-15.2 14.35,-27.84 24.68,-38.02 10.32,-10.07 21.99,-17.67 34.79,-22.7 12.92,-5.04 26.24,-7.61 39.98,-7.61 13.72,0 27.04,2.57 39.96,7.61 12.91,5.03 24.47,12.63 34.79,22.7 10.33,10.18 18.6,22.82 24.69,38.02 6.08,15.22 9.19,32.88 9.29,53.13 -0.1,20.35 -3.21,38.23 -9.29,53.55 -6.09,15.32 -14.36,28.06 -24.69,38.24 -10.32,10.18 -21.88,17.88 -34.79,23.02 -12.92,5.04 -26.24,7.61 -39.96,7.61 -13.74,0 -27.06,-2.57 -39.98,-7.61 -12.8,-5.14 -24.47,-12.84 -34.79,-23.02 -10.33,-10.18 -18.6,-22.92 -24.68,-38.24 -6,-15.32 -9.2,-33.2 -9.3,-53.55zm527.27 -122.75l157.39 0c0,-12.74 0,-24.52 0,-35.34 0,-10.92 0,-21.74 0,-32.56 0,-10.82 0,-22.39 0,-34.92 -29.65,0 -59.49,0 -89.74,0 -30.26,0 -60.42,0 -90.67,0 -30.26,0 -60.1,0 -89.74,0l0 449.85c18.89,0 37.79,0 56.59,0 18.9,0 37.59,0 56.17,0l0 -347.03zm345.75 347.03l0 -115.04 79.92 0c23.04,-0.2 43.59,-3.96 61.56,-11.46 17.86,-7.49 33.25,-17.77 46.05,-30.73 12.81,-12.96 23.13,-27.85 30.77,-44.45 7.64,-16.71 12.81,-34.28 15.39,-52.81 2.58,-18.42 2.58,-36.95 0,-55.48 -2.58,-18.53 -7.75,-36.09 -15.39,-52.8 -7.64,-16.71 -17.96,-31.49 -30.77,-44.56 -12.8,-13.06 -28.19,-23.34 -46.05,-30.84 -17.97,-7.61 -38.52,-11.46 -61.56,-11.68 -32,0 -63.92,0 -95.83,0 -32.01,0 -63.61,0 -95,0 0,75.2 0,150.27 0,225.14 0,74.98 0,149.84 0,224.71 18.28,0 36.66,0 55.25,0 18.49,0 37.07,0 55.66,0zm79.31 -218.5l-79.31 0c0,-9.21 0,-19.38 0,-30.42 0,-10.92 0,-22.27 0,-33.84 0,-11.57 0,-22.92 0,-33.84 0,-11.03 0,-21.21 0,-30.43 12.81,-0.1 25.92,-0.1 39.44,-0.21 13.44,-0.22 26.75,-0.11 39.87,0.21 9.19,0.22 17.03,2.68 23.44,7.29 6.51,4.71 11.56,10.81 15.38,18.42 3.72,7.72 6.2,16.07 7.34,25.17 1.14,9.1 1.03,18.21 -0.41,27.31 -1.34,9 -4.03,17.35 -7.96,24.96 -3.82,7.6 -8.98,13.71 -15.28,18.31 -6.3,4.61 -13.84,6.96 -22.51,7.07zm515.51 218.5l108.43 0 0 -16.72 -195.79 -438.91 -47.71 0 -195.17 438.91 0 16.72 108.43 0 25.4 -56.56 171.01 0 25.4 56.56zm-61.34 -154.88l-99.14 0 48.95 -118.24 50.19 118.24zm601.01 -70.69c-0.11,15.96 -2.79,29.24 -8.05,39.85 -5.28,10.5 -12.3,18.85 -21.18,25.06 -8.77,6.21 -18.69,10.71 -29.53,13.49 -10.95,2.9 -22.1,4.61 -33.57,5.14l0 -166.44c12.09,0.43 23.56,1.93 34.61,4.72 10.94,2.78 20.75,7.17 29.43,13.38 8.67,6.11 15.58,14.46 20.54,24.96 5.06,10.6 7.64,23.88 7.75,39.84zm-287.49 0c0.09,-15.96 2.68,-29.24 7.73,-39.84 4.96,-10.5 11.89,-18.85 20.56,-24.96 8.68,-6.21 18.48,-10.6 29.43,-13.38 11.05,-2.79 22.62,-4.29 34.6,-4.72l0 166.44c-11.47,-0.53 -22.62,-2.24 -33.47,-5.14 -10.94,-2.78 -20.85,-7.28 -29.63,-13.49 -8.89,-6.21 -15.9,-14.56 -21.17,-25.06 -5.27,-10.61 -7.96,-23.89 -8.05,-39.85zm91.07 227.49l105.34 0 0 -37.91c22.51,-0.75 43.99,-3.32 64.33,-7.72 20.34,-4.49 39.03,-11.24 56.08,-20.34 17.04,-9.11 31.8,-20.89 44.4,-35.35 12.5,-14.56 22.3,-32.24 29.12,-53.01 6.92,-20.78 10.43,-45.21 10.53,-73.16 -0.1,-27.85 -3.5,-52.05 -10.43,-72.72 -6.81,-20.78 -16.52,-38.24 -29.02,-52.7 -12.49,-14.46 -27.25,-26.13 -44.19,-35.12 -16.94,-9 -35.63,-15.64 -55.97,-20.03 -20.24,-4.5 -41.72,-7.07 -64.23,-7.72l0 -37.91 -106.57 0 0 37.91c-22.52,0.65 -43.89,3.22 -64.24,7.72 -20.34,4.39 -39.03,11.03 -55.97,20.03 -16.94,8.99 -31.7,20.66 -44.2,35.12 -12.49,14.46 -22.09,31.92 -29.02,52.7 -6.81,20.67 -10.32,44.87 -10.42,72.72 0.1,27.95 3.61,52.38 10.53,73.16 6.92,20.77 16.62,38.45 29.13,53.01 12.59,14.46 27.36,26.24 44.39,35.35 17.04,9.1 35.73,15.85 56.08,20.34 20.35,4.4 41.82,6.97 64.33,7.72l0 37.91zm652.44 -222.99l0 221.07c19.21,0 38.41,0 57.52,0 19.21,0 38.21,0 57.11,0l0 -451.77 -40.27 0 -219.34 222.03 0 -220.11c-37.8,0 -75.59,0 -113.39,0l0 449.85 39.65 0 218.72 -221.07zm182.78 204.35l0 16.72 123.92 0 74.35 -132.38 57.62 0 0 132.38c18.69,0 37.29,0 55.98,0 18.58,0 36.96,0 54.93,0 0,-74.87 0,-149.73 0,-224.71 0,-74.87 0,-149.94 0,-225.14 -31.39,0 -62.99,0 -94.9,0 -31.8,0 -63.61,0 -95.31,0 -24.38,0.22 -45.85,4.29 -64.44,12.22 -18.7,7.92 -34.49,18.63 -47.4,32.12 -13.01,13.5 -23.03,28.82 -30.26,45.96 -7.33,17.13 -11.67,35.01 -13.22,53.65 -1.44,18.64 -0.2,37.17 4.03,55.28 4.23,18.2 11.25,35.23 21.17,50.87 10.02,15.74 22.72,29.12 38.41,40.38l-84.88 142.65zm176.59 -219.13c-10.02,-0.22 -18.38,-2.89 -25.2,-8.14 -6.82,-5.35 -11.98,-12.21 -15.6,-20.57 -3.5,-8.35 -5.26,-17.24 -5.47,-26.66 -0.1,-9.42 1.56,-18.32 4.86,-26.67 3.3,-8.46 8.46,-15.32 15.28,-20.67 6.92,-5.36 15.6,-8.25 26.13,-8.47 13.12,-0.32 26.33,-0.43 39.65,-0.21 13.43,0.11 26.64,0.11 39.65,0.21 0,18.43 0,37.06 0,55.81 0,18.85 0,37.27 0,55.37l-79.3 0zm1059.51 11.57c-0.1,-31.06 -4.34,-59.12 -12.5,-83.97 -8.16,-24.85 -19.41,-46.7 -33.76,-65.33 -14.36,-18.64 -30.98,-34.17 -49.78,-46.7 -18.9,-12.43 -39.03,-21.74 -60.52,-27.96 -21.58,-6.21 -43.46,-9.31 -65.88,-9.31 -22.4,0 -44.3,3.1 -65.88,9.31 -21.48,6.22 -41.62,15.53 -60.41,27.96 -18.89,12.53 -35.53,28.06 -49.88,46.7 -14.35,18.63 -25.61,40.48 -33.77,65.33 -8.15,24.85 -12.29,52.91 -12.49,83.97 0.2,31.16 4.34,59.22 12.49,84.18 8.16,24.86 19.42,46.7 33.77,65.44 14.35,18.64 30.99,34.28 49.88,46.7 18.79,12.54 38.93,21.85 60.41,28.07 21.58,6.2 43.48,9.31 65.88,9.31 22.42,0 44.3,-3.11 65.88,-9.31 21.49,-6.22 41.62,-15.53 60.52,-28.07 18.8,-12.42 35.42,-28.06 49.78,-46.7 14.35,-18.74 25.6,-40.49 33.76,-65.44 8.16,-24.96 12.4,-53.02 12.5,-84.18zm-330.87 0c0.11,-20.25 3.31,-37.91 9.3,-53.13 6.09,-15.2 14.35,-27.84 24.68,-38.02 10.32,-10.07 21.99,-17.67 34.8,-22.7 12.91,-5.04 26.23,-7.61 39.97,-7.61 13.73,0 27.05,2.57 39.96,7.61 12.91,5.03 24.47,12.63 34.8,22.7 10.33,10.18 18.59,22.82 24.68,38.02 6.09,15.22 9.19,32.88 9.3,53.13 -0.11,20.35 -3.21,38.23 -9.3,53.55 -6.09,15.32 -14.35,28.06 -24.68,38.24 -10.33,10.18 -21.89,17.88 -34.8,23.02 -12.91,5.04 -26.23,7.61 -39.96,7.61 -13.74,0 -27.06,-2.57 -39.97,-7.61 -12.81,-5.14 -24.48,-12.84 -34.8,-23.02 -10.33,-10.18 -18.59,-22.92 -24.68,-38.24 -5.99,-15.32 -9.19,-33.2 -9.3,-53.55zm775.74 -225.57c-37.8,0 -75.59,0 -113.39,0l0 163.24 -133.83 0 0 -163.24c-18.9,0 -37.9,0 -56.9,0 -19.01,0 -37.9,0 -56.49,0l0 449.85c18.59,0 37.48,0 56.49,0 19,0 38,0 56.9,0l0 -180.59 133.83 0 0 180.59c37.8,0 75.59,0 113.39,0l0 -449.85zm275.1 186.37l111.53 263.48 108.43 0 0 -16.72 -195.79 -438.91 -47.71 0 -195.17 438.91 0 16.72 108.43 0 110.28 -263.48zm552.68 263.48l108.43 0 0 -16.72 -195.79 -438.91 -47.71 0 -195.17 438.91 0 16.72 108.43 0 25.4 -56.56 171.01 0 25.4 56.56zm-61.33 -154.88l-99.15 0 48.96 -118.24 50.19 118.24zm270.14 154.88l-39.66 0 0 -449.85c37.79,0 75.59,0 113.38,0l0 220.11 219.34 -222.03 40.28 0 0 451.77c-18.9,0 -37.9,0 -57.11,0 -19.1,0 -38.31,0 -57.51,0l0 -221.07 -218.72 221.07zm118.96 -590.58c-10.85,0.65 -21.59,1.61 -32.12,2.67 -10.64,1.18 -21.17,2.47 -31.7,3.75 0.73,24 5.26,44.14 13.94,60.52 8.57,16.28 20.76,28.6 36.55,36.84 15.91,8.35 34.91,12.53 57.32,12.53 34.49,-0.11 60.82,-9.42 79.1,-27.95 18.28,-18.53 28.09,-45.84 29.33,-81.94 -10.54,-1.28 -21.07,-2.57 -31.7,-3.75 -10.54,-1.06 -21.28,-2.02 -32.12,-2.67 -1.24,8.89 -3.92,15.96 -7.85,21.1 -4.03,5.25 -9.19,8.89 -15.59,11.03 -6.4,2.25 -13.95,3.21 -22.41,3.21 -13.01,0 -23.24,-2.89 -30.46,-8.78 -7.23,-5.79 -11.36,-14.67 -12.29,-26.56l0 0zm682.18 140.73c-37.8,0 -75.59,0 -113.39,0l0 163.24 -133.83 0 0 -163.24c-18.9,0 -37.9,0 -56.9,0 -19.01,0 -37.9,0 -56.49,0l0 449.85c18.59,0 37.48,0 56.49,0 19,0 38,0 56.9,0l0 -180.59 133.83 0 0 180.59c37.8,0 75.59,0 113.39,0l0 -449.85z"/>
   </g>
  </g>
 </g>
</svg>
